<svg width="810" height="810" viewBox="0 0 810 810" fill="none" xmlns="http://www.w3.org/2000/svg">
<g clip-path="url(#clip0_15_821)">
<g clip-path="url(#clip1_15_821)">
<rect width="400" height="400" rx="120" fill="#4B813D"/>
<path d="M127.363 287.3C127.363 300.7 120.363 307.4 106.363 307.4C99.5625 307.4 94.1625 305.7 90.1625 302.3C86.1625 298.9 84.1625 293.9 84.1625 287.3V163.4C84.1625 139.8 89.1625 122 99.1625 110C109.363 97.8 124.363 91.7 144.163 91.7C158.763 91.7 170.863 94.7 180.463 100.7C190.063 106.7 196.463 115.3 199.663 126.5C202.863 115.3 209.263 106.7 218.863 100.7C228.463 94.7 240.763 91.7 255.763 91.7C276.163 91.7 291.263 97.6 301.063 109.4C310.863 121 315.763 139 315.763 163.4V284.3C315.763 292.5 314.163 298.4 310.963 302C307.763 305.6 302.363 307.4 294.763 307.4C287.163 307.4 281.563 305.6 277.963 302C274.363 298.2 272.563 292.3 272.563 284.3V161C272.563 141.2 264.063 131.3 247.063 131.3C238.463 131.3 232.063 134.2 227.863 140C223.663 145.6 221.563 154.6 221.563 167V281.3C221.563 289.5 219.963 295.4 216.763 299C213.563 302.6 208.163 304.4 200.563 304.4C192.963 304.4 187.363 302.6 183.763 299C180.163 295.2 178.363 289.3 178.363 281.3V167C178.363 143.2 169.863 131.3 152.863 131.3C135.863 131.3 127.363 141.2 127.363 161V287.3Z" fill="white"/>
</g>
<g clip-path="url(#clip2_15_821)">
<rect x="410" width="400" height="400" rx="120" fill="#F3B756"/>
<path d="M552.611 226.7C546.411 226.7 541.411 225.2 537.611 222.2C534.011 219 532.211 214.3 532.211 208.1C532.211 201.7 534.011 197 537.611 194C541.411 191 546.411 189.5 552.611 189.5H591.611V150.8C591.611 144.4 593.111 139.4 596.111 135.8C599.311 132.2 604.011 130.4 610.211 130.4C616.611 130.4 621.311 132.2 624.311 135.8C627.311 139.4 628.811 144.4 628.811 150.8V189.5H667.511C673.911 189.5 678.911 191 682.511 194C686.111 197 687.911 201.7 687.911 208.1C687.911 214.3 686.111 219 682.511 222.2C678.911 225.2 673.911 226.7 667.511 226.7H628.811V265.7C628.811 271.9 627.311 276.9 624.311 280.7C621.311 284.3 616.611 286.1 610.211 286.1C604.011 286.1 599.311 284.3 596.111 280.7C593.111 276.9 591.611 271.9 591.611 265.7V226.7H552.611Z" fill="white"/>
</g>
<g clip-path="url(#clip3_15_821)">
<rect y="410" width="400" height="400" rx="120" fill="#4B813D"/>
<path d="M200.07 536.8C192.67 536.8 186.47 534.4 181.47 529.6C176.47 524.8 173.97 518.9 173.97 511.9C173.97 504.5 176.47 498.4 181.47 493.6C186.47 488.8 192.67 486.4 200.07 486.4C207.67 486.4 213.87 488.8 218.67 493.6C223.67 498.4 226.17 504.5 226.17 511.9C226.17 518.9 223.67 524.8 218.67 529.6C213.87 534.4 207.67 536.8 200.07 536.8ZM221.67 697.3C221.67 710.7 214.67 717.4 200.67 717.4C193.87 717.4 188.47 715.8 184.47 712.6C180.47 709.2 178.47 704.1 178.47 697.3V583C178.47 576.6 180.07 571.6 183.27 568C186.67 564.4 192.27 562.6 200.07 562.6C207.87 562.6 213.37 564.4 216.57 568C219.97 571.6 221.67 576.6 221.67 583V697.3Z" fill="white"/>
</g>
</g>
<defs>
<clipPath id="clip0_15_821">
<rect width="810" height="810" fill="white"/>
</clipPath>
<clipPath id="clip1_15_821">
<rect width="400" height="400" rx="120" fill="white"/>
</clipPath>
<clipPath id="clip2_15_821">
<rect x="410" width="400" height="400" rx="120" fill="white"/>
</clipPath>
<clipPath id="clip3_15_821">
<rect y="410" width="400" height="400" rx="120" fill="white"/>
</clipPath>
</defs>
</svg>
